<?xml version="1.0" encoding="UTF-8"?>
<svg xmlns="http://www.w3.org/2000/svg" xmlns:xlink="http://www.w3.org/1999/xlink" width="33px" height="33px" viewBox="0 0 33 33" version="1.1">
<g id="surface1">
<path style=" stroke:none;fill-rule:nonzero;fill:rgb(31.372549%,31.372549%,31.372549%);fill-opacity:1;" d="M 16.5 0 C 7.363281 0 0 7.363281 0 16.5 C 0 23.863281 4.695312 29.953125 11.296875 32.113281 C 12.058594 32.238281 12.4375 31.730469 12.4375 31.351562 C 12.4375 30.96875 12.4375 29.699219 12.4375 28.304688 C 8.25 29.066406 7.234375 27.289062 6.855469 26.398438 C 6.726562 25.890625 5.839844 24.496094 5.203125 24.117188 C 4.570312 23.863281 3.808594 23.101562 5.203125 22.972656 C 6.472656 22.972656 7.488281 24.117188 7.742188 24.625 C 9.265625 27.160156 11.550781 26.398438 12.566406 26.019531 C 12.691406 25.003906 13.199219 24.242188 13.582031 23.863281 C 9.898438 23.480469 6.09375 22.085938 6.09375 15.738281 C 6.09375 13.960938 6.726562 12.4375 7.742188 11.296875 C 7.488281 10.789062 6.980469 9.136719 7.871094 6.855469 C 7.871094 6.855469 9.265625 6.472656 12.4375 8.503906 C 13.707031 8.125 15.105469 7.996094 16.625 7.996094 C 18.023438 7.996094 19.417969 8.125 20.816406 8.503906 C 23.988281 6.347656 25.382812 6.855469 25.382812 6.855469 C 26.273438 9.136719 25.765625 10.789062 25.511719 11.167969 C 26.527344 12.3125 27.160156 13.835938 27.160156 15.613281 C 27.160156 21.957031 23.355469 23.355469 19.671875 23.734375 C 20.308594 24.242188 20.816406 25.257812 20.816406 26.78125 C 20.816406 28.9375 20.816406 30.714844 20.816406 31.351562 C 20.816406 31.730469 21.070312 32.238281 21.957031 32.113281 C 28.304688 29.953125 33 23.734375 33 16.5 C 33 7.363281 25.636719 0 16.5 0 Z M 16.5 0 "/>
</g>
</svg>
